<svg aria-hidden="true" style="position:absolute;width:0;height:0;overflow:hidden" xmlns="http://www.w3.org/2000/svg">
  <defs>

<symbol id="icon-eye" viewBox="0 0 32 32" fill="none">
<path stroke-linejoin="round" stroke-linecap="round" stroke-miterlimit="4" stroke-width="2.88" d="M1.333 16c0 0 5.333-10.667 14.667-10.667s14.667 10.667 14.667 10.667-5.333 10.667-14.667 10.667c-9.333 0-14.667-10.667-14.667-10.667z"></path>
<path stroke-linejoin="round" stroke-linecap="round" stroke-miterlimit="4" stroke-width="2.88" d="M16 20c2.209 0 4-1.791 4-4s-1.791-4-4-4c-2.209 0-4 1.791-4 4s1.791 4 4 4z"></path>
</symbol>

<symbol id="icon-eye-off" viewBox="0 0 32 32" fill="none">
<path stroke-linejoin="round" stroke-linecap="round" stroke-miterlimit="4" stroke-width="2.88" d="M23.92 23.92c-2.279 1.737-5.055 2.7-7.92 2.747-9.333 0-14.667-10.667-14.667-10.667 1.659-3.091 3.959-5.791 6.747-7.92M13.2 5.654c0.918-0.215 1.857-0.322 2.8-0.32 9.333 0 14.667 10.667 14.667 10.667-0.809 1.514-1.775 2.94-2.88 4.253M18.826 18.827c-0.366 0.393-0.808 0.708-1.298 0.927s-1.020 0.336-1.557 0.346c-0.537 0.009-1.071-0.089-1.569-0.291s-0.951-0.501-1.33-0.88c-0.38-0.38-0.679-0.832-0.88-1.33s-0.3-1.032-0.29-1.569c0.009-0.537 0.127-1.067 0.346-1.557s0.534-0.932 0.927-1.298"></path>
<path stroke-linejoin="round" stroke-linecap="round" stroke-miterlimit="4" stroke-width="2.88" d="M1.333 1.334l29.333 29.333"></path>
</symbol>

    <symbol id="icon-close" viewBox="0 0 32 32">
      <path d="M7.472 6.603a1.749 1.749 0 0 0-.868.879l-.004.011a1.581 1.581 0 0 0 .001 1.031l-.003-.011c.078.24.414.592 3.694 3.878l3.608 3.616-3.608 3.616c-3.28 3.286-3.616 3.638-3.694 3.878a1.448 1.448 0 0 0 .361 1.555l.001.001a1.445 1.445 0 0 0 1.565.359l-.01.003c.24-.078.592-.414 3.878-3.694l3.616-3.608 3.616 3.608c3.286 3.28 3.638 3.616 3.878 3.694.58.192 1.127.066 1.555-.362a1.445 1.445 0 0 0 .359-1.565l.003.01c-.078-.24-.414-.592-3.694-3.878l-3.608-3.616 3.608-3.616c3.28-3.286 3.616-3.638 3.694-3.878a1.448 1.448 0 0 0-.361-1.555l-.001-.001a1.445 1.445 0 0 0-1.565-.359l.01-.003c-.24.078-.592.414-3.878 3.694l-3.616 3.608-3.616-3.608C9.107 7.01 8.755 6.674 8.515 6.596a1.665 1.665 0 0 0-1.054.009l.012-.003z"/>
    </symbol>
    <symbol id="icon-quote" viewBox="0 0 32 32">
      <path d="M0 28.8v-8.565c0-3.2.573-6.149 1.719-8.847S4.808 5.961 7.546 3.2l4.967 3.859c-1.592 1.569-2.802 3.043-3.63 4.423s-1.369 2.792-1.624 4.235h6.113v13.082H-.001zm18.627 0v-8.565c0-3.2.573-6.149 1.719-8.847s3.089-5.427 5.827-8.188l4.967 3.859c-1.592 1.569-2.802 3.043-3.63 4.423s-1.369 2.792-1.624 4.235h6.113v13.082H18.626z"/>
    </symbol>
    <symbol id="icon-upload-photo" viewBox="0 0 32 32">
      <path d="M11.748 3.785a.32.32 0 0 1-.319.321l-4.581.015c-.722.002-1.414.29-1.923.802s-.796 1.204-.796 1.926v4.579a.32.32 0 1 1-.64 0V6.849a3.368 3.368 0 0 1 3.358-3.368l4.581-.015a.32.32 0 0 1 .321.319zm8.503.001c0-.177.144-.32.321-.319l4.581.014a3.364 3.364 0 0 1 3.358 3.368v4.581a.32.32 0 1 1-.64 0V6.849a2.726 2.726 0 0 0-2.719-2.728l-4.581-.014a.32.32 0 0 1-.319-.321zM3.809 20.251a.32.32 0 0 1 .32.32v4.571a2.728 2.728 0 0 0 2.728 2.728h4.571a.32.32 0 1 1 0 .64H6.857a3.368 3.368 0 0 1-3.367-3.367v-4.571a.32.32 0 0 1 .32-.32zm24.381 0a.32.32 0 0 1 .32.32v4.571a3.368 3.368 0 0 1-3.367 3.367h-4.571a.32.32 0 1 1 0-.64h4.571a2.728 2.728 0 0 0 2.728-2.728V20.57a.32.32 0 0 1 .32-.32zM16 18.75c.625 0 1.156-.219 1.594-.656s.656-.969.656-1.594c0-.625-.219-1.156-.656-1.594s-.969-.656-1.594-.656-1.156.219-1.594.656c-.437.438-.656.969-.656 1.594s.219 1.156.656 1.594c.438.437.969.656 1.594.656zm-4 1.75c-.275 0-.51-.098-.706-.293S11 19.775 11 19.501v-6c0-.275.098-.51.294-.706s.431-.294.706-.294h1.575l.925-1h3l.925 1H20c.275 0 .511.098.706.294s.294.431.294.706v6c0 .275-.098.51-.294.706s-.431.293-.706.293h-8z"/>
    </symbol>
    <symbol id="icon-plus" viewBox="0 0 32 32">
      <path d="M15.475 5.269a1.623 1.623 0 0 0-.51.356c-.476.474-.452.218-.452 4.842v4.046h-4.046c-4.622 0-4.368-.024-4.84.45-.281.261-.456.632-.456 1.045s.175.784.455 1.044l.001.001c.472.474.218.45 4.84.45h4.046v4.046c0 4.622-.024 4.368.45 4.84.261.281.632.456 1.045.456s.784-.175 1.044-.455l.001-.001c.474-.472.45-.218.45-4.84v-4.046h4.046c4.622 0 4.368.024 4.84-.45a1.421 1.421 0 0 0 .001-2.088l-.001-.001c-.472-.474-.218-.45-4.84-.45h-4.046v-4.046c0-4.622.024-4.368-.45-4.84a1.466 1.466 0 0 0-1.587-.355l.01-.003z"/>
    </symbol>
    <symbol id="icon-minus" viewBox="0 0 32 32">
      <path d="M6.137 14.607a1.76 1.76 0 0 0-.868.879l-.004.011a1.438 1.438 0 0 0 .362 1.554l.001.001c.492.492-.488.45 10.381.45s9.889.042 10.381-.45a1.421 1.421 0 0 0 .001-2.088l-.001-.001c-.492-.492.492-.45-10.403-.446-8.61.004-9.635.014-9.849.09z"/>
    </symbol>
    <symbol id="icon-chevron-down" viewBox="0 0 32 32">
      <path d="M6.868 10.869a1.6 1.6 0 0 1 2.263 0L16 17.738l6.869-6.869a1.6 1.6 0 1 1 2.263 2.263l-8 8a1.6 1.6 0 0 1-2.263 0l-8-8a1.6 1.6 0 0 1 0-2.263z"/>
    </symbol>
    <symbol id="icon-chevron-up" viewBox="0 0 32 32">
    <path d="M25.132 21.131a1.6 1.6 0 0 1-2.263 0L16 14.262l-6.869 6.869a1.6 1.6 0 1 1-2.263-2.263l8-8a1.6 1.6 0 0 1 2.263 0l8 8a1.6 1.6 0 0 1 0 2.263z"/>
    </symbol>
    <symbol id="icon-trash" viewBox="0 0 32 32">
      <path d="M11.559 2.476c-.915.25-1.392 1.299-.999 2.2.126.288.483.64.794.784.248.114.259.114 4.649.114s4.401 0 4.649-.114c.318-.147.666-.496.808-.811a1.856 1.856 0 0 0-.005-1.309l.004.013a1.863 1.863 0 0 0-.798-.807l-.01-.005c-.246-.114-.272-.114-4.542-.125-3.393-.008-4.348.005-4.551.059zm-8.002 4c-1.143.309-1.524 1.799-.677 2.645.376.376.599.445 1.503.47l.781.021.034.355c.018.194.211 3.077.432 6.408.447 6.777.527 7.821.642 8.509.317 1.885 1.323 3.289 2.93 4.084.565.28 1.071.43 1.829.543.667.098 9.277.098 9.944 0 .767-.114 1.266-.262 1.829-.544a5.287 5.287 0 0 0 2.642-2.935l.012-.037c.346-1.005.358-1.141.919-9.619.221-3.33.414-6.214.432-6.408l.034-.355.781-.021c.651-.018.824-.04 1.031-.134.317-.144.666-.491.808-.808a1.856 1.856 0 0 0-.005-1.309l.004.013a1.863 1.863 0 0 0-.798-.807l-.01-.005-.248-.114-12.295-.011c-9.928-.008-12.345.003-12.553.059zm20.075 3.148c0 .21-.923 13.763-.963 14.14-.117 1.103-.299 1.565-.783 1.997-.342.304-.648.462-1.063.55-.45.094-9.191.094-9.64 0a2.165 2.165 0 0 1-1.064-.551l.001.001c-.483-.432-.666-.895-.783-1.997-.04-.378-.963-13.931-.963-14.14 0-.013 3.433-.022 7.629-.022s7.629.01 7.629.022z"/>
    </symbol>
    <symbol id="icon-heart" viewBox="0 0 32 32">
      <path d="M8.094 2.807a8.67 8.67 0 0 0-6.6 5.087l-.022.056a8.164 8.164 0 0 0-.68 3.395v-.005c0 1.939.554 3.606 1.729 5.202.286.386 1.841 1.975 6.543 6.677 3.394 3.394 6.253 6.215 6.357 6.269.258.134.914.134 1.173 0 .276-.144 12.452-12.344 12.842-12.866.924-1.241 1.481-2.547 1.703-4.002a11.516 11.516 0 0 0-.005-2.615l.005.053a8.632 8.632 0 0 0-6-6.967l-.061-.016a8.503 8.503 0 0 0-2.468-.357c-1.23 0-2.4.255-3.461.715l.056-.022a8.644 8.644 0 0 0-2.677 1.811l-.52.502-.494-.476c-1.415-1.365-2.963-2.145-4.854-2.445a10.967 10.967 0 0 0-2.618.009l.053-.005zm2.471 2.616a6.772 6.772 0 0 1 1.521.514c.66.328 1.081.66 2.107 1.669.572.562 1.125 1.069 1.229 1.123.26.14.912.14 1.173 0 .104-.054.656-.56 1.229-1.123.612-.6 1.199-1.125 1.423-1.275 2.441-1.607 5.573-1.299 7.626.754A6.663 6.663 0 0 1 28.03 8.67c.362.728.626 1.849.626 2.669 0 .818-.264 1.939-.626 2.667-.444.892-.462.912-6.371 6.829l-5.649 5.657-5.649-5.657c-5.923-5.931-5.923-5.931-6.379-6.843a6.083 6.083 0 0 1-.607-2.669c0-.334.026-.661.077-.98l-.005.035a6.082 6.082 0 0 1 4.508-4.902l.042-.009a6.252 6.252 0 0 1 2.609-.04l-.039-.007z"/>
    </symbol>
    <symbol id="icon-arrow-left" viewBox="0 0 32 32">
      <path d="M15.473 5.393c-.186.084-1.331 1.199-5.06 4.922-2.651 2.647-4.882 4.908-4.956 5.024-.101.16-.161.354-.162.562-.048.672-.336.344 5.098 5.773 5.409 5.399 5.074 5.102 5.713 5.044.176-.014.338-.054.488-.118l-.01.004c.279-.164.496-.405.626-.695l.004-.01c.11-.29.078-.838-.062-1.067-.052-.086-1.753-1.819-3.782-3.85l-3.686-3.696 8.03-.002c7.664 0 8.042-.004 8.246-.098.275-.139.497-.349.648-.605l.004-.007c.126-.23.126-.906 0-1.137a1.567 1.567 0 0 0-.643-.608l-.009-.004c-.204-.094-.582-.098-8.206-.098-4.394-.002-7.99-.02-7.99-.042s1.623-1.661 3.606-3.642c1.985-1.981 3.668-3.696 3.742-3.812a1.409 1.409 0 0 0 .099-1.128l.003.01a1.478 1.478 0 0 0-.688-.726l-.008-.004a1.39 1.39 0 0 0-1.053.011l.009-.003z"/>
    </symbol>
    <symbol id="icon-arrow-up-right" viewBox="0 0 32 32">
      <path d="M8.778 8.184a1.09 1.09 0 0 0-.608.613l-.003.007a1.4 1.4 0 0 0 .228 1.437l-.002-.002c.11.1.237.185.375.248l.009.004.266.126h5.216c2.867.002 5.214.02 5.214.042s-2.511 2.549-5.581 5.615c-6.055 6.049-5.837 5.811-5.837 6.403 0 .33.17.752.378.944.36.33.986.428 1.435.226.188-.084 1.483-1.349 5.845-5.707 3.081-3.081 5.621-5.601 5.643-5.601.02 0 .038 2.347.04 5.215v5.216l.124.268c.422.908 1.715.968 2.247.108l.162-.26.016-6.995c.012-4.988-.002-7.051-.044-7.197a1.43 1.43 0 0 0-.659-.735l-.008-.004c-.202-.092-.554-.096-7.203-.096l-6.989-.002-.266.126z"/>
    </symbol>
    <symbol id="icon-facebook" viewBox="0 0 32 32">
      <path fill="currentColor" d="M17.551 4.62c-1.371.176-2.285.57-2.885 1.24-.647.723-.903 1.84-.903 3.934v.928h-2.188v3.041h2.188v13.283h4.108V13.871h2.613V10.83h-2.62l.016-1.064.016-1.063.157-.165c.224-.234.419-.269 1.483-.269h.947V4.641h-.418c-.23 0-.848-.01-1.375-.022a15.4 15.4 0 0 0-1.171.003l.03-.001z"/>
    </symbol>
    <symbol id="icon-instagram" viewBox="0 0 32 32">
      <path fill="currentColor" d="M11.629 3.234c-1.908.09-2.685.2-3.663.526a6.48 6.48 0 0 0-2.582 1.572c-.933.928-1.472 1.911-1.834 3.351-.186.744-.237 1.189-.302 2.674-.074 1.692-.034 9.591.054 10.46.24 2.367 1.115 4.126 2.642 5.305.493.379.663.486 1.178.741.859.424 2.029.735 3.202.848.976.094 10.436.096 11.405 0 1.221-.118 2.399-.419 3.189-.816a6.84 6.84 0 0 0 2.949-2.92l.018-.038c.402-.805.711-1.996.823-3.173.094-.994.098-10.375.005-11.426-.192-2.144-.827-3.716-1.981-4.892-1.267-1.293-2.874-1.973-5.06-2.144-.683-.053-9.13-.109-10.044-.067zM23.464 7.79c.915.394 1.17 1.64.491 2.412-.567.647-1.682.647-2.248 0-.405-.461-.518-1.173-.267-1.668.402-.786 1.224-1.088 2.024-.744zm-6.309 1.735c2.613.454 4.716 2.504 5.281 5.145.118.56.134 1.864.027 2.453a6.646 6.646 0 0 1-2.489 4.056l-.016.012a6.312 6.312 0 0 1-3.893 1.332l-.095-.001h.005a6.559 6.559 0 0 1-6.445-5.38l-.006-.04a8.186 8.186 0 0 1 .005-2.295l-.005.043c.484-2.668 2.523-4.752 5.128-5.294l.043-.007c.621-.126 1.805-.139 2.46-.024zm-2.16 2.586a4.001 4.001 0 0 0-2.904 4.707l-.005-.026c.05.25.189.629.35.965.227.467.334.621.704.992.797.8 1.575 1.146 2.676 1.187.813.03 1.275-.062 1.92-.381.856-.426 1.432-.994 1.839-1.815.291-.592.394-1.051.394-1.765 0-.712-.102-1.171-.394-1.764a4.004 4.004 0 0 0-2.568-2.1l-.028-.006a4.71 4.71 0 0 0-2.016.011l.031-.006z"/>
    </symbol>
    <symbol id="icon-youtube" viewBox="0 0 32 32">
      <path fill="currentColor" d="M11.709 4.859c-1.917.042-4.057.128-5.257.211-1.373.094-2.036.272-2.73.728-1.632 1.074-2.12 3.244-2.12 9.405 0 2.239.038 3.244.189 4.988.245 2.801.999 4.215 2.583 4.841.827.328 1.514.392 5.015.475 6.798.16 15.021.04 17.058-.251 1.095-.155 1.882-.538 2.485-1.205 1.093-1.207 1.474-3.492 1.474-8.848 0-4.55-.274-6.796-.992-8.165-.506-.962-1.472-1.627-2.666-1.837-1.712-.298-9.264-.471-15.038-.342zm5.23 7.982a383.376 383.376 0 0 1 3.849 2.074c-.032.026-7.64 4.089-7.701 4.113-.059.022-.072-.669-.072-4.113 0-2.277.014-4.14.032-4.14s1.768.93 3.892 2.066z"/>
    </symbol>
    <symbol id="icon-user" viewBox="0 0 32 32">
      <path d="M15.404 4.218c-2.818.198-5.321 2.159-6.224 4.876-.29.873-.354 1.293-.35 2.32.003.81.022 1.012.142 1.527.472 2.02 1.743 3.722 3.523 4.717.226.127.394.246.372.265s-.232.101-.467.181c-.235.081-.751.313-1.147.516a10.314 10.314 0 0 0-5.413 7.161c-.074.364-.148.874-.164 1.134-.027.415-.017.493.078.643.222.35.8.339.983-.02.042-.083.117-.461.165-.841.256-2.014 1.084-3.759 2.469-5.204 1.442-1.505 3.233-2.438 5.27-2.745.687-.104 2.031-.104 2.719 0 4.139.624 7.297 3.922 7.764 8.109.032.289.094.594.138.678.187.361.767.374.981.022.125-.205.13-.455.025-1.194a10.342 10.342 0 0 0-5.521-7.743 11.85 11.85 0 0 0-1.12-.509c-1.832-.582-1.991-.639-2.149-.696l1.671.528c-.048-.017.111-.138.411-.314 1.787-1.045 2.999-2.684 3.468-4.689.12-.515.139-.717.142-1.527.004-1.023-.06-1.449-.345-2.305a7.22 7.22 0 0 0-3.621-4.173c-1.115-.562-2.446-.813-3.8-.718zm1.67 1.251c2.309.427 4.166 2.151 4.741 4.403a6.098 6.098 0 0 1-.86 4.908 6.13 6.13 0 0 1-3.008 2.28c-2.258.755-4.651.171-6.277-1.531-2.809-2.94-1.978-7.699 1.664-9.53a5.203 5.203 0 0 1 1.467-.506c.614-.126 1.666-.137 2.274-.025z"/>
    </symbol>
  </defs>
</svg>